<svg width="600" height="600" xmlns="http://www.w3.org/2000/svg">
 <!-- Created with Method Draw - http://github.com/duopixel/Method-Draw/ -->
 <g>
  <title>background</title>
  <rect fill="#fff" id="canvas_background" height="602" width="602" y="-1" x="-1"/>
 </g>
 <g>
  <title>Layer 1</title>
  <rect id="svg_2" height="144" width="415" y="222" x="92" fill-opacity="null" stroke-opacity="null" stroke-width="1.5" stroke="#000" fill="#fff"/>
  <rect id="svg_1" height="48" width="362" y="252" x="119" stroke-width="1.5" stroke="#000" fill="#fff"/>
  <text stroke="#000" transform="matrix(0.9606202514968203,0,0,0.9932706540689438,-158.08337392587273,-2.3217421074568563) " xml:space="preserve" text-anchor="start" font-family="Helvetica, Arial, sans-serif" font-size="24" id="svg_5" y="331.945313" x="290.5" fill-opacity="null" stroke-opacity="null" stroke-width="0" fill="#000000">KEY-ALPH 2000</text>
  <path d="m137.5,220.945313c-9,-14 -11.486259,-16.823746 -12,-19c-0.459503,-1.946503 0,-2 3,-2c2,0 4.907791,0.496231 9,1c1.985016,0.24437 5,1 7,0l0,0" id="svg_6" fill-opacity="null" stroke-opacity="null" stroke-width="0" stroke="#000" fill="none"/>
  <path d="m170.5,220.945313c-11,-18 -14.190277,-21.881516 -16,-25c-1.122345,-1.93399 -1,-3 2,-4c3,-1 6,-1 8,-1c6,0 13.152237,-0.234634 15,-1c1.306564,-0.541199 0.809723,-1.881516 -1,-5c-2.24469,-3.867996 -6.817886,-9.552719 -12,-20c-2.392975,-4.82428 -3,-9 -3,-13c0,-1 0.769928,-0.45137 5,1c4.823029,1.654816 11,0 14,-1l0,-1l1,0l1,-1" id="svg_7" stroke-opacity="null" stroke-width="0" stroke="#000" fill="none"/>
  <line stroke="#000" stroke-linecap="null" stroke-linejoin="null" id="svg_11" y2="187.945313" x2="137.5" y1="223.945313" x1="170.5" fill-opacity="null" stroke-opacity="null" stroke-width="1.5" fill="none"/>
  <line stroke-linecap="null" stroke-linejoin="null" id="svg_12" y2="151.945313" x2="169.5" y1="187.945313" x1="137.5" fill-opacity="null" stroke-opacity="null" stroke-width="1.5" stroke="#000" fill="none"/>
  <line stroke="#000" stroke-linecap="null" stroke-linejoin="null" id="svg_13" y2="128.945313" x2="139.5" y1="153.945313" x1="168.5" fill-opacity="null" stroke-opacity="null" stroke-width="1.5" fill="none"/>
  <ellipse ry="21.5" rx="21" id="svg_14" cy="113.445313" cx="125.5" fill-opacity="null" stroke-opacity="null" stroke-width="1.5" stroke="#000" fill="none"/>
 </g>
</svg>