<svg width="600" height="600" xmlns="http://www.w3.org/2000/svg">
 <!-- Created with Method Draw - http://github.com/duopixel/Method-Draw/ -->

 <g>
  <title>background</title>
  <rect x="-1" y="-1" width="602" height="602" id="canvas_background" fill="#fff"/>
 </g>
 <g>
  <title>Layer 1</title>
  <rect fill="#fff" stroke="#000" stroke-width="1.5" stroke-opacity="null" fill-opacity="null" x="92" y="222" width="415" height="144" id="svg_2"/>
  <rect fill="#fff" stroke="#000" stroke-width="1.5" x="119" y="252" width="362" height="48" id="svg_1"/>
  <text style="cursor: move;" fill="#000000" stroke-width="0" stroke-opacity="null" fill-opacity="null" x="290.5" y="331.945313" id="svg_5" font-size="24" font-family="Helvetica, Arial, sans-serif" text-anchor="start" xml:space="preserve" transform="matrix(0.9606202514968203,0,0,0.9932706540689438,-158.08337392587273,-2.3217421074568563) " stroke="#000">REVERSE KEY-ALPH 2000</text>
  <path fill="none" stroke="#000" stroke-width="0" stroke-opacity="null" fill-opacity="null" id="svg_6" d="m398.5,218.94531c-9,-14 -11.48626,-16.82374 -12,-19c-0.4595,-1.9465 0,-2 3,-2c2,0 4.90779,0.49623 9,1c1.98502,0.24437 5,1 7,0l0,0"/>
  <path fill="none" stroke="#000" stroke-width="0" stroke-opacity="null" id="svg_7" d="m431.5,218.94531c-11,-18 -14.19028,-21.88151 -16,-25c-1.12234,-1.93399 -1,-3 2,-4c3,-1 6,-1 8,-1c6,0 13.15224,-0.23463 15,-1c1.30656,-0.5412 0.80972,-1.88151 -1,-5c-2.24469,-3.86799 -6.81789,-9.55272 -12,-20c-2.39298,-4.82428 -3,-9 -3,-13c0,-1 0.76993,-0.45137 5,1c4.82303,1.65482 11,0 14,-1l0,-1l1,0l1,-1"/>
  <line fill="none" stroke-width="1.5" stroke-opacity="null" fill-opacity="null" x1="431.5" y1="221.945313" x2="398.5" y2="185.945313" id="svg_11" stroke-linejoin="null" stroke-linecap="null" stroke="#000"/>
  <line fill="none" stroke="#000" stroke-width="1.5" stroke-opacity="null" fill-opacity="null" x1="398.5" y1="185.945313" x2="430.5" y2="149.945313" id="svg_12" stroke-linejoin="null" stroke-linecap="null"/>
  <line fill="none" stroke-width="1.5" stroke-opacity="null" fill-opacity="null" x1="429.5" y1="151.945313" x2="400.5" y2="126.945313" id="svg_13" stroke-linejoin="null" stroke-linecap="null" stroke="#000"/>
  <ellipse fill="none" stroke="#000" stroke-width="1.5" stroke-opacity="null" fill-opacity="null" cx="386.5" cy="111.445313" id="svg_14" rx="21" ry="21.5"/>
 </g>
</svg>